# xmcd
#
# Track frame offsets:
#	150
#	15912
#	29607
#	43312
#	61760
#	78192
#	95110
#	111427
#	122957
#	140427
#	160447
#	176715
#	190792
#	209380
#	225105
#	241250
#	254327
#	269975
#	289270
#	299672
#	318690
#	335870
#	350750
#	352837
#
# Disc length: 4711
#
# Revision: 1
# Processed by: cddbd v1.5.1PL0 Copyright (c) Steve Scherf et al.
# Submitted via: VisiTrax 2.9.5.180 - For more info visit www.synapsa.com
# Normalized: r0:DSETVAR1
#
DISCID=81126518
DTITLE=Various Artist - CDX 276 October 2001
DYEAR=2001
DGENRE=
TTITLE0=Robin English - A girl in love
TTITLE1=Hank Williams Jr - Go girl go
TTITLE2=Merle Haggard - If you've got the money (I've got the time)
TTITLE3=George Strait - Run
TTITLE4=Lyle Lovett - San Antonio girl
TTITLE5=Ricky Skaggs and Kentucky Thunder - Shady grove
TTITLE6=Loretta Lynn - Table for two
TTITLE7=Diamond Rio - That's just that
TTITLE8=Brooks and Dunn - The long goodbye
TTITLE9=Bruce Robison - What would Willie do
TTITLE10=Various Artist - America the beautiful
TTITLE11=LeeAnn Rimes - God bless America
TTITLE12=Kenny Rogers - Homeland
TTITLE13=Charlie daniels Band - In America
TTITLE14=BR549 - Little good news
TTITLE15=Waylon Jennings - The eagle
TTITLE16=Billy Gillman - There's a hero
TTITLE17=Faith Hill - There will come a day
TTITLE18=Faith Hill - The star spangled banner
TTITLE19=Billy Ray Cyrus - We the people
TTITLE20=Aaron Tippin - Wgere the stars and stripes and the eagle fly
TTITLE21=Tommy Gilham - Red white and blue
TTITLE22=Various Artist - PSA
TTITLE23=jo Dee Messina - PSA
EXTD=
EXTT0=
EXTT1=
EXTT2=
EXTT3=
EXTT4=
EXTT5=
EXTT6=
EXTT7=
EXTT8=
EXTT9=
EXTT10=
EXTT11=
EXTT12=
EXTT13=
EXTT14=
EXTT15=
EXTT16=
EXTT17=
EXTT18=
EXTT19=
EXTT20=
EXTT21=
EXTT22=
EXTT23=
PLAYORDER=
